<svg width="142" height="68" viewBox="0 0 142 68" fill="none" xmlns="http://www.w3.org/2000/svg">
<path d="M11.5658 11.6914C9.68132 11.6914 8.1319 11.1437 6.91748 10.0483C5.74494 8.91078 5.15867 7.52045 5.15867 5.87733C5.15867 4.19207 5.74494 2.80174 6.91748 1.70632C8.1319 0.568773 9.68132 0 11.5658 0C13.4083 0 14.9159 0.568773 16.0884 1.70632C17.3028 2.80174 17.91 4.19207 17.91 5.87733C17.91 7.52045 17.3028 8.91078 16.0884 10.0483C14.9159 11.1437 13.4083 11.6914 11.5658 11.6914ZM16.9678 55.171C16.9678 59.5105 15.879 62.6283 13.7015 64.5242C11.5239 66.4622 8.48785 67.4312 4.59334 67.4312H0.384766V58.2677H2.96016C4.1327 58.2677 4.97023 58.0359 5.47275 57.5725C5.97526 57.109 6.22652 56.3507 6.22652 55.2974V15.3569H16.9678V55.171Z" fill="url(#paint0_linear_444_5612)"/>
<path d="M40.6455 51.1264C37.2116 51.1264 34.1128 50.3891 31.3489 48.9145C28.627 47.4399 26.4703 45.3333 24.879 42.5948C23.3296 39.8563 22.5549 36.6543 22.5549 32.9888C22.5549 29.3655 23.3505 26.1846 24.9418 23.4461C26.5331 20.6654 28.7107 18.5378 31.4746 17.0632C34.2384 15.5886 37.3372 14.8513 40.7711 14.8513C44.205 14.8513 47.3038 15.5886 50.0677 17.0632C52.8315 18.5378 55.0091 20.6654 56.6004 23.4461C58.1917 26.1846 58.9873 29.3655 58.9873 32.9888C58.9873 36.6121 58.1708 39.8141 56.5376 42.5948C54.9463 45.3333 52.7478 47.4399 49.942 48.9145C47.1782 50.3891 44.0793 51.1264 40.6455 51.1264Z" fill="url(#paint1_linear_444_5612)"/>
<path d="M78.0025 14.8513C80.4732 14.8513 82.6298 15.3569 84.4724 16.368C86.3568 17.3792 87.8016 18.7063 88.8066 20.3494V15.3569H99.5479V50.5576C99.5479 53.8017 98.8988 56.7299 97.6006 59.342C96.3444 61.9963 94.3971 64.1029 91.7589 65.6617C89.1626 67.2206 85.9171 68 82.0226 68C76.83 68 72.6214 66.7571 69.3969 64.2714C66.1724 61.8278 64.3299 58.4994 63.8692 54.2862H74.4849C74.8199 55.6344 75.6155 56.6877 76.8718 57.4461C78.1281 58.2466 79.6776 58.6468 81.5201 58.6468C83.7396 58.6468 85.4984 57.9938 86.7965 56.6877C88.1366 55.4238 88.8066 53.3804 88.8066 50.5576V45.5651C87.7597 47.2082 86.315 48.5564 84.4724 49.6097C82.6298 50.6208 80.4732 51.1264 78.0025 51.1264C75.113 51.1264 72.4958 50.3891 70.1507 48.9145C67.8056 47.3978 65.9421 45.2701 64.5602 42.5316C63.2201 39.7509 62.5501 36.549 62.5501 32.9257C62.5501 29.3024 63.2201 26.1214 64.5602 23.3829C65.9421 20.6444 67.8056 18.5378 70.1507 17.0632C72.4958 15.5886 75.113 14.8513 78.0025 14.8513ZM88.8066 32.9888C88.8066 30.2924 88.0528 28.1648 86.5453 26.6059C85.0796 25.0471 83.2789 24.2677 81.1432 24.2677C79.0075 24.2677 77.1859 25.0471 75.6784 26.6059C74.2127 28.1227 73.4798 30.2292 73.4798 32.9257C73.4798 35.6221 74.2127 37.7708 75.6784 39.3717C77.1859 40.9306 79.0075 41.71 81.1432 41.71C83.2789 41.71 85.0796 40.9306 86.5453 39.3717C88.0528 37.8129 88.8066 35.6853 88.8066 32.9888Z" fill="url(#paint2_linear_444_5612)"/>
<path d="M123.274 51.1264C119.84 51.1264 116.741 50.3891 113.977 48.9145C111.255 47.4399 109.098 45.3333 107.507 42.5948C105.958 39.8563 105.183 36.6543 105.183 32.9888C105.183 29.3655 105.979 26.1846 107.57 23.4461C109.161 20.6654 111.339 18.5378 114.103 17.0632C116.867 15.5886 119.965 14.8513 123.399 14.8513C126.833 14.8513 129.932 15.5886 132.696 17.0632C135.46 18.5378 137.637 20.6654 139.229 23.4461C140.82 26.1846 141.616 29.3655 141.616 32.9888C141.616 36.6121 140.799 39.8141 139.166 42.5948C137.574 45.3333 135.376 47.4399 132.57 48.9145C129.806 50.3891 126.708 51.1264 123.274 51.1264Z" fill="url(#paint3_linear_444_5612)"/>
<path d="M126.429 12.1229C124.037 14.1083 121.933 16.5551 121.329 19.6609C120.893 21.9031 122.634 23.1325 124.69 23.361C127.691 23.6944 130.559 21.9372 133.49 21.5269C134.426 21.3958 135.729 21.2434 136.49 21.9032C136.939 22.2924 137.004 22.983 136.872 23.5306C136.474 25.1793 134.696 25.9999 133.49 26.9869C130.766 29.2154 127.786 31.0341 124.902 33.0406C123.458 34.0449 122.07 35.1753 120.72 36.3007C119.846 37.0285 118.803 37.9635 118.271 38.9883C117.607 40.2639 116.53 43.2682 118.726 43.7486C120.757 44.1928 122.872 42.8849 124.52 41.872C126.669 40.5518 128.755 39.0789 130.797 37.5994C131.912 36.7917 133.125 36.1875 134.343 35.5533C135.101 35.1588 135.836 34.9277 136.686 34.9277C136.944 34.9277 137.33 34.8412 137.476 35.1186C137.694 35.533 137.879 35.9849 137.879 36.4544C137.879 37.8453 136.957 38.6895 135.854 39.4124C134.616 40.2233 133.415 41.044 132.201 41.8879C131.532 42.3537 131.035 42.9792 130.479 43.5736C129.861 44.2337 129.102 44.9957 128.766 45.8531C128.349 46.9203 128.055 48.1367 128.645 49.198C128.724 49.3405 129.416 50.1946 129.387 50.1946" stroke="white" stroke-linecap="round" stroke-linejoin="round"/>
<defs>
<linearGradient id="paint0_linear_444_5612" x1="11.4925" y1="17.706" x2="133.249" y2="41.1292" gradientUnits="userSpaceOnUse">
<stop stop-color="#1669E5"/>
<stop offset="1" stop-color="#86B6FF"/>
</linearGradient>
<linearGradient id="paint1_linear_444_5612" x1="11.4925" y1="17.706" x2="133.249" y2="41.1292" gradientUnits="userSpaceOnUse">
<stop stop-color="#1669E5"/>
<stop offset="1" stop-color="#86B6FF"/>
</linearGradient>
<linearGradient id="paint2_linear_444_5612" x1="11.4925" y1="17.706" x2="133.249" y2="41.1292" gradientUnits="userSpaceOnUse">
<stop stop-color="#1669E5"/>
<stop offset="1" stop-color="#86B6FF"/>
</linearGradient>
<linearGradient id="paint3_linear_444_5612" x1="11.4925" y1="17.706" x2="133.249" y2="41.1292" gradientUnits="userSpaceOnUse">
<stop stop-color="#1669E5"/>
<stop offset="1" stop-color="#86B6FF"/>
</linearGradient>
</defs>
</svg>
